# xmcd
#
# Track frame offsets:
#	150
#	10297
#	19000
#	36642
#	45385
#	56170
#	62167
#	75102
#	86310
#	95302
#	115680
#	128402
#	134867
#	148837
#	156140
#	163970
#
# Disc length: 2322 seconds
#
# Revision: 0
# Processed by: cddbd v1.5PL3 Copyright (c) Steve Scherf et al.
# Submitted via: dBpowerAMP V4.0
#
DISCID=d0091010
DTITLE=Eddie Lee Jones And Family - Yonder Go That Old Black Dog
DYEAR=1995
DGENRE=Blues
TTITLE0=Yonder Go That Old Black Dog
TTITLE1=Baby, Please Don't Go
TTITLE2=She's Mine, She's Yours
TTITLE3=Oh Graveyard, You Can't Hold Me Always
TTITLE4=You're Gonna Need My Help Someday
TTITLE5=Slide Instrumental
TTITLE6=Stop And Listen
TTITLE7=I May Never See You Anymore
TTITLE8=I Got A Yellow Gal
TTITLE9=John Henry
TTITLE10=I Won't Be Troubled No More
TTITLE11=I'm Talking 'Bout You
TTITLE12=Keep Your Lamp Trimmed And Burning
TTITLE13=Instrumental
TTITLE14=Let That Liar Alone
TTITLE15=Which Way Does The Blood Red River Flow
EXTD=
EXTT0=
EXTT1=
EXTT2=
EXTT3=
EXTT4=
EXTT5=
EXTT6=
EXTT7=
EXTT8=
EXTT9=
EXTT10=
EXTT11=
EXTT12=
EXTT13=
EXTT14=
EXTT15=
PLAYORDER=
